<svg width="54" height="49" viewBox="0 0 54 49" fill="none" xmlns="http://www.w3.org/2000/svg">
<path d="M27 0C23.498 0 20.0304 0.646644 16.7951 1.90301C13.5597 3.15938 10.62 5.00086 8.14379 7.32233C3.14283 12.0107 0.333313 18.3696 0.333313 25C0.333313 36.05 7.98664 45.425 18.5733 48.75C19.9066 48.95 20.3333 48.175 20.3333 47.5C20.3333 46.925 20.3333 45.35 20.3333 43.275C12.9466 44.775 11.3733 39.925 11.3733 39.925C10.1466 37.025 8.41331 36.25 8.41331 36.25C5.98664 34.7 8.59997 34.75 8.59997 34.75C11.2666 34.925 12.68 37.325 12.68 37.325C15 41.125 18.92 40 20.44 39.4C20.68 37.775 21.3733 36.675 22.12 36.05C16.2 35.425 9.98664 33.275 9.98664 23.75C9.98664 20.975 11 18.75 12.7333 16.975C12.4666 16.35 11.5333 13.75 13 10.375C13 10.375 15.24 9.7 20.3333 12.925C22.44 12.375 24.7333 12.1 27 12.1C29.2666 12.1 31.56 12.375 33.6666 12.925C38.76 9.7 41 10.375 41 10.375C42.4666 13.75 41.5333 16.35 41.2666 16.975C43 18.75 44.0133 20.975 44.0133 23.75C44.0133 33.3 37.7733 35.4 31.8266 36.025C32.7866 36.8 33.6666 38.325 33.6666 40.65C33.6666 44 33.6666 46.7 33.6666 47.5C33.6666 48.175 34.0933 48.975 35.4533 48.75C46.0399 45.4 53.6666 36.05 53.6666 25C53.6666 21.7169 52.9769 18.466 51.6367 15.4329C50.2966 12.3998 48.3324 9.64379 45.8561 7.32233C43.3799 5.00086 40.4402 3.15938 37.2048 1.90301C33.9695 0.646644 30.5019 0 27 0Z" fill="white"/>
</svg>
