<svg width="52" height="52" viewBox="0 0 52 52" fill="none" xmlns="http://www.w3.org/2000/svg">
<path d="M11.742 17.1001H0.876343V51.7501H11.742V17.1001Z" fill="white"/>
<path d="M41.1342 16.3486C40.7336 16.2985 40.308 16.2734 39.8824 16.2484C33.7986 15.998 30.3687 19.6033 29.1669 21.1555C28.8415 21.5811 28.6912 21.8315 28.6912 21.8315V17.1998H18.3013V51.8498H28.6912H29.1669C29.1669 48.3197 29.1669 44.8146 29.1669 41.2845C29.1669 39.3818 29.1669 37.4791 29.1669 35.5763C29.1669 33.2229 28.9917 30.7193 30.1684 28.5662C31.1698 26.7636 32.9724 25.8623 35.0003 25.8623C41.009 25.8623 41.1342 31.2951 41.1342 31.7958C41.1342 31.8209 41.1342 31.8459 41.1342 31.8459V52H51.9998V29.3924C51.9998 21.6562 48.0692 17.0996 41.1342 16.3486Z" fill="white"/>
<path d="M6.30908 12.6182C9.7935 12.6182 12.6182 9.79353 12.6182 6.3091C12.6182 2.82468 9.7935 0 6.30908 0C2.82466 0 0 2.82468 0 6.3091C0 9.79353 2.82466 12.6182 6.30908 12.6182Z" fill="white"/>
</svg>
